<svg aria-hidden="true" style="width:0;height:0;position:absolute;overflow:hidden" xmlns="http://www.w3.org/2000/svg"><defs><symbol id="icon-anime-searcher" viewBox="0 0 49 32"><path fill="#00fff5" style="fill:var(--color1,#00fff5)" d="m16 31.111 3.378.711v-2.133l-.711.356-1.6-.356-.356-.711-1.422-1.244-.889-1.778v-1.778l.356-.711h.711l.178.711 1.067 1.244 1.244.356-.533-.889v-.533l.178-1.6.711 1.067h-.356l.356 1.422 1.6.178 1.422.889 1.067.889 1.422.711v-.711l-.889-.711.356-.711.178-1.6.711-2.844.711-1.067.356-.711.356.711.178 1.422v3.2l-.533 1.067-.178.533 2.844-2.311 1.067-1.067v-1.067h.356v1.6l-.356 1.244-2.311 1.422-1.778.889v.711l3.022-1.422 2.667-.711v-.889h.533v.533h.711l1.244-1.778h.889v2.844l-.889 1.778-1.6 1.422-1.6.267-.533-.267v1.778l3.733-1.067 2.133-.356-1.244-.711 4.267-.533 2.844-.533-2.489-1.422-1.956-.356 2.844-1.956 4.089-1.778 5.333-1.422-2.667-1.067-3.556-.711-2.133-.178 1.067-.711 2.311-1.067 2.133-.711-3.378-.889-4.8-.356-4.089.356-1.956-2.311-1.422-1.244-.711-.356h-1.067v-4.8l-.533-2.489-1.244-2.844-1.422-1.6 1.067 4.267.178 2.667-.178 1.422-.356-2.311-1.422-3.2-1.067-1.422 1.067 3.022.889 2.133.178 2.311-.889-1.956-1.244-1.956-1.778-1.244-3.911-1.956L13.512.709l-3.2-.356 4.267 4.267 2.133 3.378 1.244 2.844v.889l-2.311-1.422-2.667-1.422-1.956-.178L8 9.242l-3.2.889-2.311 1.067 3.378.889 2.489 1.244 1.956 1.6 1.067 1.067.889 1.422-.889-.533-2.133-1.244-4.089-1.067-1.956-.178.889.533 3.378.711 2.844 1.244 1.422 1.067-3.378-.356-2.489.356-3.022 1.778-2.489 2.133h4.622L8 22.575l2.489 1.067.533.889-2.489.356-2.667 1.6 4.444.711 4.089 1.6.356.711-2.311.889.356.356 3.2.356z"/><path fill="#135d66" style="fill:var(--color2,#135d66)" d="M26.489 17.422h-4.978v-.711h4.622l.711-.711v-1.422l-.711-.711h-3.911l-.711-.356-.356-.356v-1.422l.356-.356.711-.356H27.2v.711h-4.978l-.178.356v.711l.178.356h4.267l.711.711.356.711v1.778l-.356.711-.711.356zM20.444 11.022v6.4h-.711v-1.778h-2.844l-1.778 1.778h-.889l6.222-6.4z"/><path fill="#00fff5" style="fill:var(--color1,#00fff5)" d="M19.733 14.933V12.8L17.6 14.933h2.133z"/><path fill="#222831" style="fill:var(--color3,#222831)" d="M20.089 18.844v4.978h-1.067l-.356-.711v-2.133l.533-1.244.889-.889z"/></symbol></defs></svg>