<svg aria-hidden="true" style="position: absolute; width: 0; height: 0; overflow: hidden;" version="1.1" xmlns="http://www.w3.org/2000/svg" xmlns:xlink="http://www.w3.org/1999/xlink">
<defs>
<symbol id="icon-anime-searcher" viewBox="0 0 49 32">
<path fill="#00fff5" style="fill: var(--color1, #00fff5)" d="M16 31.111l3.378 0.711v-2.133l-0.711 0.356-1.6-0.356-0.356-0.711-1.422-1.244-0.889-1.778v-1.778l0.356-0.711h0.711l0.178 0.711 1.067 1.244 1.244 0.356-0.533-0.889v-0.533l0.178-1.6 0.711 1.067h-0.356l0.356 1.422 1.6 0.178 1.422 0.889 1.067 0.889 1.422 0.711v-0.711l-0.889-0.711 0.356-0.711 0.178-1.6 0.711-2.844 0.711-1.067 0.356-0.711 0.356 0.711 0.178 1.422v3.2l-0.533 1.067-0.178 0.533 2.844-2.311 1.067-1.067v-1.067h0.356v1.6l-0.356 1.244-2.311 1.422-1.778 0.889v0.711l3.022-1.422 2.667-0.711v-0.889h0.533v0.533h0.711l1.244-1.778h0.889v2.844l-0.889 1.778-1.6 1.422-1.6 0.267-0.533-0.267v1.778l3.733-1.067 2.133-0.356-1.244-0.711 4.267-0.533 2.844-0.533-2.489-1.422-1.956-0.356 2.844-1.956 4.089-1.778 5.333-1.422-2.667-1.067-3.556-0.711-2.133-0.178 1.067-0.711 2.311-1.067 2.133-0.711-3.378-0.889-4.8-0.356-4.089 0.356-1.956-2.311-1.422-1.244-0.711-0.356h-1.067v-4.8l-0.533-2.489-1.244-2.844-1.422-1.6 1.067 4.267 0.178 2.667-0.178 1.422-0.356-2.311-1.422-3.2-1.067-1.422 1.067 3.022 0.889 2.133 0.178 2.311-0.889-1.956-1.244-1.956-1.778-1.244-3.911-1.956-4.444-1.422-3.2-0.356 4.267 4.267 2.133 3.378 1.244 2.844v0.889l-2.311-1.422-2.667-1.422-1.956-0.178-3.022 0.533-3.2 0.889-2.311 1.067 3.378 0.889 2.489 1.244 1.956 1.6 1.067 1.067 0.889 1.422-0.889-0.533-2.133-1.244-4.089-1.067-1.956-0.178 0.889 0.533 3.378 0.711 2.844 1.244 1.422 1.067-3.378-0.356-2.489 0.356-3.022 1.778-2.489 2.133h4.622l3.022 0.711 2.489 1.067 0.533 0.889-2.489 0.356-2.667 1.6 4.444 0.711 4.089 1.6 0.356 0.711-2.311 0.889 0.356 0.356 3.2 0.356z"></path>
<path fill="#135d66" style="fill: var(--color2, #135d66)" d="M26.489 17.422h-4.978v-0.711h4.622l0.711-0.711v-1.422l-0.711-0.711h-3.911l-0.711-0.356-0.356-0.356v-1.422l0.356-0.356 0.711-0.356h4.978v0.711h-4.978l-0.178 0.356v0.711l0.178 0.356h4.267l0.711 0.711 0.356 0.711v1.778l-0.356 0.711-0.711 0.356z"></path>
<path fill="#135d66" style="fill: var(--color2, #135d66)" d="M20.444 11.022v6.4h-0.711v-1.778h-2.844l-1.778 1.778h-0.889l6.222-6.4z"></path>
<path fill="#00fff5" style="fill: var(--color1, #00fff5)" d="M19.733 14.933v-2.133l-2.133 2.133h2.133z"></path>
<path fill="#222831" style="fill: var(--color3, #222831)" d="M20.089 18.844v4.978h-1.067l-0.356-0.711v-2.133l0.533-1.244 0.889-0.889z"></path>
</symbol>
</defs>
</svg>
