<svg aria-hidden="true" style="position: absolute; width: 0; height: 0; overflow: hidden;" version="1.1" xmlns="http://www.w3.org/2000/svg" xmlns:xlink="http://www.w3.org/1999/xlink">
<defs>
<symbol id="icon-logo" viewBox="0 0 32 32">
<path fill="#431f5a" style="fill: var(--color1, #431f5a)" d="M15.999 0v9.144l-8 4.571-8-4.572 16-9.143z"></path>
<path fill="#722ed1" style="fill: var(--color2, #722ed1)" d="M8 13.715l8 4.571v9.143l-16-9.143v-9.143l8 4.572z"></path>
<path fill="#722ed1" style="fill: var(--color2, #722ed1)" d="M23.999 22.857v9.142l-8-4.571v-9.143l8 4.571z"></path>
<path fill="#722ed1" style="fill: var(--color2, #722ed1)" d="M15.999 0v9.143l16 9.141v-9.141l-16-9.143z"></path>
<path fill="#431f5a" style="fill: var(--color1, #431f5a)" d="M31.998 9.143v9.144l-8 4.571-8-4.572 16-9.143z"></path>
<path fill="#431f5a" style="fill: var(--color1, #431f5a)" d="M23.999 22.857l-8 4.571v-9.143l8 4.571z"></path>
</symbol>
<symbol id="icon-send" viewBox="0 0 32 32">
<path d="M31.283 14.622l-29.298-11.513c-0.12-0.042-0.249-0.049-0.372-0.019s-0.235 0.093-0.323 0.185c-0.088 0.091-0.148 0.206-0.172 0.33s-0.013 0.253 0.033 0.371l2.402 8.638c0.069 0.249 0.214 0.471 0.414 0.635s0.446 0.263 0.703 0.282l20.266 1.5c0.134 0.011 0.422 0.067 0.419 0.204s-0.278 0.2-0.412 0.211l-20.022 1.19c-0.271 0.015-0.53 0.119-0.738 0.294s-0.353 0.413-0.413 0.678l-2.179 9.394c-0.039 0.118-0.044 0.245-0.015 0.366s0.092 0.231 0.182 0.318c0.089 0.087 0.201 0.147 0.323 0.174s0.248 0.018 0.366-0.024l28.846-11.968c0.128-0.047 0.238-0.132 0.315-0.244s0.118-0.245 0.117-0.381c-0.001-0.136-0.044-0.269-0.123-0.379s-0.19-0.194-0.319-0.239z"></path>
</symbol>
<symbol id="icon-instagram" viewBox="0 0 32 32">
<path d="M10.668 16c0-1.055 0.313-2.086 0.899-2.964s1.419-1.561 2.394-1.965c0.975-0.404 2.047-0.509 3.082-0.303s1.985 0.714 2.731 1.46c0.746 0.746 1.254 1.697 1.459 2.732s0.1 2.107-0.304 3.082c-0.404 0.975-1.088 1.808-1.965 2.393s-1.909 0.898-2.964 0.898c-1.414-0.001-2.771-0.563-3.77-1.563s-1.562-2.357-1.562-3.771zM7.784 16c0 1.625 0.482 3.213 1.385 4.565s2.186 2.404 3.687 3.026 3.153 0.785 4.747 0.468c1.594-0.317 3.058-1.1 4.207-2.249s1.932-2.613 2.249-4.207c0.317-1.594 0.154-3.246-0.468-4.747s-1.675-2.784-3.026-3.687c-1.351-0.903-2.94-1.385-4.565-1.385-2.179 0-4.269 0.866-5.81 2.406s-2.406 3.631-2.406 5.81zM22.62 7.458c0 0.38 0.113 0.751 0.324 1.067s0.511 0.562 0.862 0.707c0.351 0.145 0.737 0.183 1.109 0.109s0.715-0.257 0.983-0.525c0.269-0.269 0.451-0.611 0.526-0.983s0.036-0.758-0.109-1.109c-0.145-0.351-0.391-0.651-0.707-0.862s-0.687-0.324-1.067-0.324c-0.509 0-0.998 0.202-1.358 0.562s-0.562 0.848-0.562 1.358zM9.536 29.024c-1.015-0.011-2.020-0.197-2.972-0.55-0.695-0.258-1.324-0.668-1.84-1.2-0.533-0.515-0.943-1.144-1.2-1.84-0.353-0.952-0.539-1.957-0.55-2.972-0.078-1.686-0.094-2.2-0.094-6.466s0.016-4.778 0.094-6.466c0.013-1.015 0.199-2.020 0.55-2.972 0.258-0.695 0.668-1.324 1.2-1.84 0.515-0.533 1.144-0.943 1.84-1.2 0.952-0.353 1.957-0.539 2.972-0.55 1.686-0.078 2.2-0.094 6.464-0.094s4.778 0.016 6.466 0.094c1.015 0.013 2.020 0.199 2.972 0.55 0.695 0.257 1.324 0.667 1.84 1.2 0.533 0.516 0.943 1.145 1.2 1.84 0.353 0.952 0.539 1.957 0.55 2.972 0.078 1.688 0.094 2.2 0.094 6.466s-0.016 4.778-0.094 6.466c-0.012 1.015-0.198 2.020-0.55 2.972-0.266 0.69-0.674 1.317-1.198 1.84s-1.15 0.93-1.84 1.196c-0.952 0.353-1.957 0.539-2.972 0.55-1.686 0.078-2.2 0.094-6.466 0.094s-4.778-0.016-6.464-0.094l-0.002 0.004zM9.4 0.096c-1.326 0.027-2.638 0.278-3.88 0.744-1.068 0.402-2.035 1.032-2.834 1.846-0.815 0.799-1.445 1.766-1.846 2.834-0.465 1.242-0.717 2.554-0.744 3.88-0.078 1.71-0.096 2.254-0.096 6.6s0.018 4.89 0.096 6.6c0.027 1.326 0.279 2.638 0.744 3.88 0.401 1.068 1.031 2.035 1.846 2.834 0.8 0.814 1.767 1.443 2.834 1.846 1.243 0.466 2.557 0.717 3.884 0.744 1.706 0.076 2.25 0.096 6.596 0.096s4.89-0.018 6.6-0.096c1.327-0.026 2.641-0.278 3.884-0.744 1.063-0.411 2.029-1.040 2.834-1.846s1.435-1.771 1.846-2.834c0.467-1.243 0.718-2.556 0.744-3.884 0.072-1.706 0.092-2.25 0.092-6.596s-0.018-4.89-0.096-6.6c-0.027-1.326-0.278-2.638-0.744-3.88-0.403-1.067-1.033-2.034-1.846-2.834-0.798-0.814-1.765-1.444-2.832-1.846-1.243-0.466-2.555-0.718-3.882-0.744-1.708-0.076-2.254-0.096-6.6-0.096s-4.89 0.018-6.6 0.096z"></path>
<path d="M10.668 16c0-1.055 0.313-2.086 0.899-2.964s1.419-1.561 2.394-1.965c0.975-0.404 2.047-0.509 3.082-0.303s1.985 0.714 2.731 1.46c0.746 0.746 1.254 1.697 1.459 2.732s0.1 2.107-0.304 3.082c-0.404 0.975-1.088 1.808-1.965 2.393s-1.909 0.898-2.964 0.898c-1.414-0.001-2.771-0.563-3.77-1.563s-1.562-2.357-1.562-3.771zM7.784 16c0 1.625 0.482 3.213 1.385 4.565s2.186 2.404 3.687 3.026 3.153 0.785 4.747 0.468c1.594-0.317 3.058-1.1 4.207-2.249s1.932-2.613 2.249-4.207c0.317-1.594 0.154-3.246-0.468-4.747s-1.675-2.784-3.026-3.687c-1.351-0.903-2.94-1.385-4.565-1.385-2.179 0-4.269 0.866-5.81 2.406s-2.406 3.631-2.406 5.81zM22.62 7.458c0 0.38 0.113 0.751 0.324 1.067s0.511 0.562 0.862 0.707c0.351 0.145 0.737 0.183 1.109 0.109s0.715-0.257 0.983-0.525c0.269-0.269 0.451-0.611 0.526-0.983s0.036-0.758-0.109-1.109c-0.145-0.351-0.391-0.651-0.707-0.862s-0.687-0.324-1.067-0.324c-0.509 0-0.998 0.202-1.358 0.562s-0.562 0.848-0.562 1.358zM9.536 29.024c-1.015-0.011-2.020-0.197-2.972-0.55-0.695-0.258-1.324-0.668-1.84-1.2-0.533-0.515-0.943-1.144-1.2-1.84-0.353-0.952-0.539-1.957-0.55-2.972-0.078-1.686-0.094-2.2-0.094-6.466s0.016-4.778 0.094-6.466c0.013-1.015 0.199-2.020 0.55-2.972 0.258-0.695 0.668-1.324 1.2-1.84 0.515-0.533 1.144-0.943 1.84-1.2 0.952-0.353 1.957-0.539 2.972-0.55 1.686-0.078 2.2-0.094 6.464-0.094s4.778 0.016 6.466 0.094c1.015 0.013 2.020 0.199 2.972 0.55 0.695 0.257 1.324 0.667 1.84 1.2 0.533 0.516 0.943 1.145 1.2 1.84 0.353 0.952 0.539 1.957 0.55 2.972 0.078 1.688 0.094 2.2 0.094 6.466s-0.016 4.778-0.094 6.466c-0.012 1.015-0.198 2.020-0.55 2.972-0.266 0.69-0.674 1.317-1.198 1.84s-1.15 0.93-1.84 1.196c-0.952 0.353-1.957 0.539-2.972 0.55-1.686 0.078-2.2 0.094-6.466 0.094s-4.778-0.016-6.464-0.094l-0.002 0.004zM9.4 0.096c-1.326 0.027-2.638 0.278-3.88 0.744-1.068 0.402-2.035 1.032-2.834 1.846-0.815 0.799-1.445 1.766-1.846 2.834-0.465 1.242-0.717 2.554-0.744 3.88-0.078 1.71-0.096 2.254-0.096 6.6s0.018 4.89 0.096 6.6c0.027 1.326 0.279 2.638 0.744 3.88 0.401 1.068 1.031 2.035 1.846 2.834 0.8 0.814 1.767 1.443 2.834 1.846 1.243 0.466 2.557 0.717 3.884 0.744 1.706 0.076 2.25 0.096 6.596 0.096s4.89-0.018 6.6-0.096c1.327-0.026 2.641-0.278 3.884-0.744 1.063-0.411 2.029-1.040 2.834-1.846s1.435-1.771 1.846-2.834c0.467-1.243 0.718-2.556 0.744-3.884 0.072-1.706 0.092-2.25 0.092-6.596s-0.018-4.89-0.096-6.6c-0.027-1.326-0.278-2.638-0.744-3.88-0.403-1.067-1.033-2.034-1.846-2.834-0.798-0.814-1.765-1.444-2.832-1.846-1.243-0.466-2.555-0.718-3.882-0.744-1.708-0.076-2.254-0.096-6.6-0.096s-4.89 0.018-6.6 0.096z"></path>
</symbol>
<symbol id="icon-twitter" viewBox="0 0 32 32">
<path fill="#2daae1" style="fill: var(--color3, #2daae1)" d="M15.998 32c8.837 0 16-7.163 16-16s-7.163-16-16-16-16 7.163-16 16c0 8.837 7.163 16 16 16z"></path>
<path fill="#fff" style="fill: var(--color4, #fff)" d="M26.194 9.668c-0.763 0.338-1.572 0.56-2.4 0.658 0.874-0.523 1.527-1.345 1.84-2.314-0.821 0.488-1.719 0.832-2.656 1.016-0.574-0.612-1.318-1.037-2.137-1.221s-1.674-0.117-2.454 0.192-1.45 0.845-1.921 1.538c-0.472 0.694-0.724 1.513-0.724 2.352-0 0.321 0.036 0.641 0.108 0.954-1.663-0.083-3.29-0.515-4.776-1.268s-2.796-1.81-3.846-3.102c-0.535 0.921-0.698 2.011-0.458 3.048s0.867 1.944 1.752 2.536c-0.664-0.020-1.313-0.199-1.894-0.522v0.052c-0 0.966 0.334 1.902 0.946 2.65s1.463 1.261 2.41 1.452c-0.359 0.098-0.73 0.147-1.102 0.146-0.264-0-0.528-0.025-0.788-0.074 0.267 0.831 0.788 1.558 1.489 2.078s1.547 0.809 2.419 0.826c-1.756 1.376-3.986 1.998-6.2 1.732 1.798 1.152 3.873 1.799 6.007 1.873s4.249-0.428 6.122-1.453c1.873-1.025 3.436-2.535 4.524-4.373s1.662-3.933 1.661-6.069c0-0.181-0.004-0.362-0.012-0.542 0.82-0.592 1.527-1.326 2.090-2.166z"></path>
</symbol>
<symbol id="icon-facebook" viewBox="0 0 32 32">
<path fill="#485a96" style="fill: var(--color5, #485a96)" d="M30.238 32c0.468 0 0.918-0.186 1.249-0.517s0.517-0.78 0.517-1.249v-28.468c0-0.468-0.186-0.918-0.517-1.249s-0.78-0.517-1.249-0.517h-28.468c-0.468 0-0.918 0.186-1.249 0.517s-0.517 0.78-0.517 1.249v28.468c0 0.468 0.186 0.918 0.517 1.249s0.78 0.517 1.249 0.517h28.468z"></path>
<path fill="#fff" style="fill: var(--color4, #fff)" d="M22.084 32v-12.386h4.16l0.622-4.83h-4.782v-3.088c0-1.4 0.388-2.352 2.4-2.352h2.558v-4.32c-1.237-0.134-2.481-0.201-3.726-0.2-0.846-0.061-1.696 0.063-2.489 0.365s-1.511 0.773-2.103 1.381c-0.592 0.608-1.044 1.339-1.323 2.14s-0.381 1.654-0.297 2.498v3.562h-4.17v4.844h4.17v12.4h4.988l-0.008-0.014z"></path>
</symbol>
<symbol id="icon-sky" viewBox="0 0 32 32">
<path fill="#8989a2" style="fill: var(--color6, #8989a2)" d="M13.908 6.987c0.005-0.058-0.004-0.117-0.025-0.171s-0.054-0.104-0.096-0.144c-0.042-0.040-0.093-0.071-0.148-0.089s-0.114-0.024-0.172-0.017h-1.553c-0.143-0.017-0.288-0.001-0.424 0.047s-0.26 0.125-0.361 0.227-0.179 0.226-0.226 0.362c-0.047 0.136-0.062 0.282-0.044 0.425v13.306c-0.004 0.058 0.005 0.117 0.026 0.172s0.054 0.104 0.097 0.144c0.042 0.040 0.093 0.071 0.149 0.089s0.115 0.024 0.173 0.017h1.55c0.143 0.017 0.288 0.001 0.425-0.047s0.26-0.125 0.361-0.228c0.102-0.102 0.179-0.226 0.225-0.363s0.062-0.282 0.044-0.425v-13.306zM31.661 11.475c0-0.25-0.184-0.373-0.436-0.373h-1.885c-0.147-0.017-0.296 0.018-0.421 0.098s-0.218 0.201-0.264 0.341l-2.658 5.898-3.704-5.837c-0.1-0.177-0.251-0.32-0.433-0.409s-0.388-0.121-0.589-0.090h-2.24c-0.186-0.013-0.373 0.018-0.545 0.091s-0.324 0.186-0.444 0.329l-3.947 4.234 3.537 5.158c0.063 0.129 0.16 0.238 0.28 0.315s0.261 0.119 0.404 0.121h2.11c0.316 0 0.5-0.127 0.5-0.392-0.013-0.155-0.078-0.302-0.184-0.416l-3.109-4.603 2.358-2.54 4.661 6.89-2.057 4.353c-0.066 0.116-0.109 0.244-0.126 0.376 0 0.252 0.185 0.373 0.437 0.373h1.871c0.147 0.017 0.296-0.017 0.42-0.096s0.218-0.2 0.264-0.341l6.077-13.103c0.067-0.116 0.109-0.244 0.123-0.377zM4.038 14.649c-0.62-0.14-0.815-0.315-0.815-0.627 0-0.243 0.193-0.437 0.751-0.437h4.522c0.143 0.018 0.288 0.002 0.424-0.044s0.26-0.124 0.362-0.226c0.102-0.102 0.179-0.225 0.227-0.361s0.063-0.281 0.046-0.424v-0.985c0.007-0.058 0.002-0.117-0.017-0.172s-0.049-0.106-0.089-0.149-0.089-0.075-0.144-0.096c-0.055-0.021-0.113-0.030-0.171-0.025h-5.295c-2.36 0.002-3.597 1.368-3.597 3.109 0 1.55 0.952 2.494 2.857 2.917l3.039 0.68c0.618 0.137 0.81 0.314 0.81 0.631 0 0.24-0.191 0.433-0.748 0.433h-4.713c-0.143-0.018-0.289-0.004-0.425 0.043s-0.261 0.124-0.363 0.225c-0.102 0.102-0.18 0.225-0.227 0.362s-0.063 0.282-0.045 0.425v0.983c-0.007 0.058-0.002 0.117 0.016 0.172s0.048 0.106 0.088 0.149 0.089 0.076 0.143 0.097c0.054 0.021 0.113 0.030 0.171 0.026h5.172c2.793 0 3.916-1.367 3.916-2.986 0-1.673-0.964-2.618-2.856-3.039l-3.039-0.681z"></path>
</symbol>
<symbol id="icon-airbnb" viewBox="0 0 32 32">
<path fill="#8989a2" style="fill: var(--color6, #8989a2)" d="M16.789 13.544c0 0.128-0.038 0.253-0.109 0.36s-0.172 0.189-0.29 0.238c-0.118 0.049-0.248 0.062-0.374 0.037s-0.241-0.087-0.331-0.177c-0.091-0.090-0.152-0.206-0.177-0.331s-0.012-0.256 0.037-0.374c0.049-0.118 0.132-0.219 0.238-0.29s0.232-0.109 0.36-0.109c0.085-0 0.169 0.016 0.248 0.049s0.15 0.080 0.21 0.14c0.060 0.060 0.108 0.131 0.14 0.21s0.049 0.163 0.049 0.248zM14.122 14.848v0.159c-0.122-0.132-0.272-0.237-0.439-0.306s-0.346-0.101-0.527-0.093c-0.516 0.010-1.008 0.222-1.369 0.59s-0.564 0.864-0.564 1.38c0 0.516 0.202 1.012 0.564 1.38s0.853 0.581 1.369 0.59c0.181 0.009 0.362-0.023 0.529-0.094s0.316-0.178 0.436-0.314v0.169c-0 0.018 0.003 0.037 0.010 0.054s0.017 0.033 0.030 0.046c0.013 0.013 0.029 0.023 0.046 0.030s0.035 0.010 0.054 0.010h0.806v-3.742h-0.806c-0.037 0.001-0.072 0.016-0.098 0.042s-0.041 0.061-0.042 0.098v0zM14.122 17.247c-0.092 0.127-0.213 0.231-0.354 0.302s-0.295 0.108-0.452 0.107c-0.145 0.007-0.291-0.016-0.427-0.067s-0.261-0.129-0.367-0.229c-0.105-0.101-0.189-0.221-0.247-0.355s-0.087-0.278-0.087-0.424c0-0.146 0.030-0.29 0.087-0.424s0.141-0.255 0.247-0.355c0.105-0.101 0.23-0.179 0.367-0.229s0.282-0.074 0.427-0.067c0.157 0.001 0.311 0.039 0.451 0.11s0.261 0.173 0.355 0.299v1.333zM15.665 14.709h0.955v3.742h-0.955v-3.742zM29.937 14.609c-0.18-0.008-0.36 0.024-0.527 0.093s-0.317 0.173-0.439 0.306v-2.101h-0.955v5.544h0.806c0.037-0.001 0.072-0.016 0.098-0.042s0.041-0.061 0.042-0.098v-0.169c0.121 0.135 0.27 0.241 0.437 0.312s0.347 0.103 0.528 0.096c0.515-0.010 1.006-0.221 1.367-0.589s0.564-0.862 0.566-1.377c0.001-0.515-0.199-1.011-0.558-1.38s-0.849-0.583-1.364-0.596v0.001zM29.778 17.645c-0.157 0.002-0.313-0.034-0.453-0.105s-0.261-0.175-0.353-0.303v-1.334c0.097-0.122 0.219-0.222 0.358-0.292s0.292-0.11 0.448-0.116c0.285 0 0.558 0.113 0.76 0.315s0.315 0.475 0.315 0.76c0 0.285-0.113 0.558-0.315 0.76s-0.475 0.315-0.76 0.315v0zM27.519 16.232v2.23h-0.956v-2.12c0-0.617-0.199-0.866-0.736-0.866-0.148 0.004-0.293 0.039-0.427 0.103s-0.253 0.154-0.35 0.266v2.608h-0.955v-3.743h0.757c0.037 0.001 0.072 0.016 0.098 0.042s0.041 0.061 0.042 0.098v0.159c0.133-0.132 0.292-0.236 0.466-0.304s0.361-0.101 0.549-0.094c0.381-0.013 0.753 0.115 1.045 0.358 0.338 0.279 0.468 0.637 0.468 1.264l-0.001 0zM21.775 14.609c-0.18-0.008-0.36 0.024-0.527 0.093s-0.316 0.173-0.439 0.305v-2.101h-0.955v5.544h0.806c0.037-0.001 0.072-0.016 0.098-0.042s0.041-0.061 0.042-0.098v-0.169c0.121 0.135 0.27 0.241 0.437 0.312s0.347 0.103 0.528 0.096c0.515-0.010 1.006-0.221 1.367-0.589s0.564-0.862 0.566-1.377c0.001-0.515-0.199-1.011-0.559-1.38s-0.849-0.583-1.364-0.596l-0 0zM21.616 17.645c-0.157 0.002-0.313-0.034-0.453-0.105s-0.261-0.175-0.353-0.303v-1.334c0.097-0.122 0.219-0.222 0.358-0.292s0.292-0.11 0.448-0.116c0.145-0.007 0.291 0.016 0.427 0.067s0.261 0.129 0.366 0.229c0.105 0.101 0.189 0.221 0.247 0.355s0.087 0.278 0.087 0.424c0 0.146-0.030 0.29-0.087 0.424s-0.141 0.255-0.247 0.355c-0.105 0.1-0.23 0.179-0.366 0.229s-0.282 0.074-0.427 0.067v0zM19.028 14.609c0.148-0.005 0.295 0.011 0.438 0.049v0.886c0 0-0.796-0.269-1.295 0.299v2.618h-0.956v-3.752h0.806c0.037 0.001 0.072 0.016 0.098 0.042s0.041 0.061 0.042 0.098v0.159c0.229-0.237 0.538-0.379 0.867-0.398v0zM9.106 18.113c-0.049-0.119-0.099-0.249-0.149-0.358-0.080-0.179-0.159-0.348-0.229-0.508l-0.010-0.010c-0.687-1.493-1.423-3.005-2.198-4.499l-0.030-0.060c-0.081-0.155-0.161-0.311-0.239-0.468-0.098-0.196-0.218-0.379-0.358-0.547-0.15-0.192-0.342-0.347-0.561-0.454s-0.46-0.163-0.704-0.163c-0.243 0.001-0.483 0.055-0.703 0.158s-0.415 0.253-0.571 0.439c-0.137 0.171-0.257 0.354-0.358 0.547-0.078 0.157-0.157 0.313-0.239 0.468l-0.030 0.060c-0.766 1.493-1.513 3.005-2.198 4.499l-0.010 0.020c-0.070 0.16-0.149 0.329-0.229 0.508-0.050 0.11-0.099 0.229-0.149 0.358-0.127 0.343-0.168 0.712-0.119 1.075 0.053 0.364 0.201 0.708 0.428 0.998s0.526 0.515 0.867 0.654c0.255 0.107 0.529 0.161 0.806 0.159 0.087-0.002 0.173-0.008 0.259-0.020 0.351-0.045 0.69-0.16 0.995-0.338 0.463-0.277 0.88-0.626 1.232-1.035 0.355 0.407 0.772 0.756 1.234 1.035 0.306 0.179 0.644 0.294 0.995 0.338 0.086 0.012 0.172 0.018 0.259 0.020 0.277 0.003 0.551-0.051 0.806-0.159 0.341-0.139 0.64-0.364 0.867-0.654s0.374-0.634 0.427-0.998c0.073-0.356 0.042-0.726-0.090-1.065h-0.001zM4.617 18.631c-0.465-0.537-0.808-1.169-1.005-1.851-0.049-0.199-0.059-0.405-0.030-0.607 0.020-0.15 0.074-0.293 0.159-0.418 0.1-0.138 0.232-0.25 0.384-0.327s0.321-0.115 0.492-0.111c0.171-0.006 0.341 0.030 0.494 0.107s0.284 0.19 0.382 0.331c0.085 0.125 0.14 0.268 0.159 0.418 0.029 0.202 0.019 0.409-0.030 0.607-0.202 0.68-0.545 1.311-1.006 1.851v0zM8.588 19.098c-0.036 0.256-0.138 0.499-0.297 0.703s-0.369 0.363-0.608 0.461c-0.24 0.098-0.5 0.132-0.757 0.099-0.268-0.033-0.525-0.121-0.757-0.259-0.428-0.259-0.811-0.585-1.135-0.966 0.562-0.633 0.974-1.384 1.204-2.198 0.064-0.277 0.081-0.563 0.049-0.846-0.037-0.243-0.129-0.475-0.269-0.677-0.158-0.223-0.369-0.405-0.614-0.528s-0.516-0.185-0.79-0.179c-0.273-0.004-0.544 0.059-0.788 0.182s-0.455 0.303-0.615 0.525c-0.14 0.202-0.232 0.434-0.269 0.677-0.042 0.282-0.026 0.571 0.049 0.846 0.149 0.657 0.557 1.403 1.204 2.209-0.322 0.383-0.705 0.709-1.135 0.966-0.232 0.138-0.49 0.226-0.757 0.259-0.257 0.029-0.517-0.005-0.757-0.099-0.239-0.099-0.448-0.259-0.606-0.463s-0.26-0.447-0.295-0.703c-0.033-0.262-0.002-0.528 0.090-0.776 0.030-0.1 0.080-0.199 0.129-0.318 0.070-0.159 0.149-0.329 0.229-0.498l0.010-0.020c0.687-1.483 1.423-2.996 2.189-4.469l0.030-0.060c0.080-0.149 0.159-0.309 0.239-0.458 0.075-0.157 0.169-0.304 0.279-0.438 0.098-0.115 0.22-0.208 0.358-0.272s0.287-0.097 0.439-0.097c0.151 0 0.301 0.033 0.439 0.097s0.26 0.156 0.358 0.272c0.11 0.134 0.203 0.281 0.279 0.438 0.080 0.149 0.159 0.309 0.239 0.458l0.030 0.060c0.755 1.479 1.481 2.972 2.18 4.479v0.010c0.080 0.16 0.149 0.339 0.229 0.498 0.049 0.119 0.099 0.22 0.129 0.318 0.082 0.247 0.106 0.509 0.069 0.766l-0 0.001z"></path>
</symbol>
<symbol id="icon-react" viewBox="0 0 32 32">
<path fill="#8989a2" style="fill: var(--color6, #8989a2)" d="M26.321 10.897c-0.338-0.116-0.678-0.223-1.021-0.322 0.057-0.231 0.11-0.463 0.158-0.697 0.773-3.75 0.267-6.775-1.458-7.77-1.654-0.954-4.36 0.041-7.093 2.419-0.269 0.233-0.532 0.475-0.79 0.724-0.172-0.167-0.348-0.329-0.525-0.486-2.864-2.543-5.736-3.615-7.46-2.617-1.653 0.957-2.143 3.8-1.447 7.354 0.069 0.352 0.147 0.702 0.234 1.050-0.406 0.116-0.8 0.239-1.174 0.369-3.358 1.171-5.503 3.005-5.503 4.909 0 1.966 2.3 3.938 5.8 5.133 0.284 0.096 0.569 0.186 0.857 0.268-0.094 0.375-0.177 0.753-0.25 1.133-0.663 3.494-0.146 6.268 1.504 7.219 1.703 0.982 4.561-0.027 7.344-2.46 0.22-0.192 0.441-0.396 0.662-0.61 0.278 0.269 0.564 0.529 0.858 0.782 2.695 2.32 5.358 3.256 7.005 2.303 1.7-0.985 2.254-3.965 1.536-7.591-0.055-0.277-0.118-0.56-0.19-0.85 0.2-0.059 0.397-0.121 0.59-0.184 3.636-1.204 6-3.15 6-5.145 0-1.91-2.213-3.758-5.639-4.936l0.002 0.002z"></path>
<path fill="#fff" style="fill: var(--color4, #fff)" d="M25.532 19.691c-0.174 0.058-0.35 0.113-0.532 0.166-0.443-1.374-0.98-2.717-1.606-4.018 0.602-1.284 1.118-2.607 1.544-3.96 0.325 0.094 0.639 0.193 0.943 0.3 2.935 1.011 4.726 2.505 4.726 3.655 0 1.226-1.933 2.818-5.073 3.858l-0-0.002zM24.23 22.273c0.306 1.374 0.357 2.793 0.15 4.186-0.189 1.018-0.569 1.697-1.038 1.969-1 0.578-3.137-0.174-5.442-2.157-0.264-0.227-0.531-0.47-0.8-0.727 0.961-1.064 1.849-2.192 2.659-3.376 1.445-0.122 2.881-0.343 4.296-0.662 0.065 0.261 0.122 0.517 0.172 0.767l0.005-0zM11.056 28.329c-0.976 0.345-1.755 0.355-2.224 0.084-1-0.577-1.417-2.805-0.85-5.793 0.067-0.353 0.144-0.704 0.232-1.053 1.409 0.303 2.837 0.51 4.274 0.619 0.833 1.18 1.742 2.303 2.723 3.364-0.197 0.19-0.399 0.376-0.604 0.556-1.037 0.953-2.24 1.706-3.55 2.223l0.001-0zM6.481 19.685c-1.343-0.422-2.598-1.089-3.7-1.965-0.786-0.675-1.181-1.345-1.181-1.887 0-1.155 1.722-2.628 4.594-3.63 0.36-0.125 0.724-0.239 1.091-0.344 0.426 1.368 0.943 2.706 1.546 4.006-0.611 1.318-1.133 2.676-1.565 4.063-0.265-0.075-0.527-0.157-0.785-0.245v0.002zM8.014 9.244c-0.596-3.047-0.2-5.345 0.796-5.921 1.061-0.615 3.408 0.261 5.88 2.457 0.158 0.141 0.317 0.287 0.476 0.439-0.973 1.054-1.875 2.171-2.7 3.344-1.424 0.128-2.837 0.348-4.232 0.658-0.081-0.324-0.154-0.65-0.218-0.978h-0.002zM21.696 12.623c-0.31-0.536-0.631-1.064-0.965-1.586 1.012 0.127 1.982 0.3 2.892 0.505-0.292 0.927-0.631 1.838-1.015 2.731-0.293-0.556-0.597-1.106-0.913-1.65v-0.001zM16.117 7.188c0.66 0.719 1.283 1.471 1.866 2.254-1.249-0.059-2.499-0.059-3.75 0 0.616-0.813 1.248-1.567 1.883-2.25l0.001-0.003zM10.5 12.632c-0.311 0.54-0.61 1.086-0.896 1.64-0.393-0.935-0.73-1.855-1.005-2.742 0.905-0.203 1.87-0.368 2.876-0.493-0.337 0.525-0.661 1.058-0.973 1.6l-0.003-0.004zM11.5 20.729c-0.982-0.107-1.957-0.263-2.923-0.47 0.28-0.904 0.625-1.844 1.028-2.8 0.287 0.554 0.587 1.101 0.9 1.641 0.319 0.551 0.651 1.094 0.996 1.629h-0.001zM16.15 24.573c-0.642-0.693-1.283-1.459-1.909-2.284 0.607 0.024 1.226 0.036 1.855 0.036 0.647 0 1.285-0.014 1.915-0.043-0.579 0.795-1.199 1.559-1.857 2.291l-0.005-0zM22.621 17.41c0.403 0.911 0.759 1.842 1.065 2.79-0.977 0.22-1.965 0.388-2.959 0.505 0.335-0.531 0.66-1.069 0.974-1.614 0.319-0.553 0.626-1.113 0.92-1.68zM20.528 18.414c-0.48 0.833-0.988 1.652-1.521 2.455-0.941 0.067-1.913 0.1-2.904 0.1s-1.947-0.030-2.872-0.090c-0.548-0.8-1.064-1.62-1.55-2.459-0.483-0.833-0.934-1.685-1.353-2.556 0.417-0.869 0.867-1.721 1.35-2.557 0.481-0.835 0.994-1.652 1.538-2.45 0.944-0.072 1.911-0.108 2.888-0.108s1.95 0.037 2.893 0.11c0.538 0.795 1.047 1.608 1.528 2.44s0.936 1.68 1.367 2.545c-0.424 0.872-0.878 1.727-1.363 2.567l-0.002 0.003zM23.323 3.283c1.062 0.612 1.475 3.083 0.808 6.322-0.044 0.211-0.091 0.421-0.142 0.63-1.397-0.317-2.814-0.541-4.241-0.67-0.817-1.174-1.713-2.292-2.681-3.346 0.238-0.229 0.481-0.452 0.73-0.669 2.341-2.038 4.53-2.842 5.527-2.268h-0z"></path>
<path fill="#8989a2" style="fill: var(--color6, #8989a2)" d="M16.102 13.001c0.56 0 1.108 0.166 1.574 0.477s0.829 0.754 1.043 1.271c0.214 0.518 0.27 1.087 0.161 1.637s-0.379 1.054-0.775 1.45c-0.396 0.396-0.901 0.666-1.45 0.775s-1.119 0.053-1.637-0.161c-0.518-0.214-0.96-0.577-1.271-1.043s-0.477-1.013-0.477-1.574c0-0.751 0.298-1.472 0.83-2.003s1.252-0.83 2.003-0.83z"></path>
</symbol>
<symbol id="icon-accenture" viewBox="0 0 32 32">
<path fill="#8989a2" style="fill: var(--color6, #8989a2)" d="M18.585 14.119l1.828-0.68-1.828-0.719v-0.953l3.129 1.263v0.777l-3.129 1.264v-0.953zM1.305 20.146c-0.661 0-1.206-0.33-1.206-1.069v-0.039c0-0.894 0.777-1.206 1.73-1.206h0.447v-0.175c0-0.37-0.155-0.583-0.544-0.583-0.067-0.008-0.135-0.003-0.199 0.017s-0.124 0.052-0.176 0.096c-0.051 0.044-0.093 0.098-0.122 0.159s-0.045 0.127-0.047 0.195h-0.974c0.078-0.818 0.719-1.206 1.574-1.206 0.874 0 1.516 0.37 1.516 1.283v2.45h-0.991v-0.428c-0.113 0.161-0.265 0.292-0.441 0.38s-0.372 0.132-0.569 0.127zM2.277 18.843v-0.349h-0.408c-0.506 0-0.759 0.136-0.759 0.466v0.039c0 0.253 0.155 0.428 0.506 0.428 0.083 0.010 0.166 0.002 0.246-0.023s0.153-0.066 0.215-0.121c0.062-0.055 0.112-0.123 0.147-0.198s0.053-0.158 0.053-0.241zM5.619 20.146c-1.011 0-1.75-0.622-1.75-1.866v-0.057c0-1.245 0.777-1.906 1.75-1.906 0.836 0 1.516 0.428 1.595 1.38h-0.972c-0.059-0.349-0.253-0.583-0.602-0.583-0.428 0-0.738 0.349-0.738 1.069v0.117c0 0.738 0.272 1.069 0.738 1.069 0.174-0.005 0.339-0.076 0.462-0.199s0.194-0.288 0.199-0.462h0.934c-0.059 0.836-0.623 1.439-1.614 1.439h-0zM9.429 20.146c-1.011 0-1.75-0.622-1.75-1.866v-0.057c0-1.244 0.777-1.905 1.75-1.905 0.836 0 1.516 0.428 1.595 1.38h-0.972c-0.059-0.349-0.253-0.583-0.602-0.583-0.428 0-0.738 0.349-0.738 1.069v0.117c0 0.738 0.272 1.069 0.738 1.069 0.174-0.005 0.339-0.076 0.462-0.199s0.194-0.288 0.199-0.462h0.932c-0.058 0.835-0.622 1.438-1.613 1.438h-0zM13.259 20.146c-1.049 0-1.769-0.622-1.769-1.846v-0.078c0-1.225 0.759-1.905 1.75-1.905 0.914 0 1.672 0.506 1.672 1.73v0.447h-2.372c0.039 0.661 0.33 0.914 0.759 0.914 0.15 0.012 0.299-0.028 0.422-0.113s0.215-0.21 0.258-0.353h0.953c-0.136 0.678-0.7 1.203-1.672 1.203h-0zM12.54 17.812h1.38c-0.019-0.544-0.272-0.777-0.68-0.777-0.33 0.021-0.622 0.195-0.7 0.777zM15.533 16.414h1.030v0.545c0.105-0.199 0.266-0.364 0.462-0.475s0.421-0.162 0.646-0.148c0.661 0 1.108 0.408 1.108 1.283v2.448h-1.030v-2.293c0-0.428-0.175-0.622-0.544-0.622-0.089-0.005-0.178 0.010-0.26 0.043s-0.157 0.084-0.218 0.148c-0.061 0.065-0.107 0.142-0.136 0.226s-0.038 0.174-0.028 0.262v2.235h-1.030v-3.653zM20.665 15.306v1.108h0.7v0.759h-0.7v1.73c0 0.272 0.117 0.408 0.37 0.408 0.119 0.005 0.238-0.015 0.349-0.059v0.797c-0.189 0.055-0.386 0.081-0.583 0.078-0.797 0-1.166-0.37-1.166-1.108v-1.846h-0.427v-0.759h0.428v-0.681l1.029-0.427zM25.213 20.068h-1.031v-0.543c-0.098 0.196-0.252 0.359-0.441 0.47s-0.407 0.164-0.626 0.153c-0.661 0-1.147-0.408-1.147-1.263v-2.47h1.029v2.333c0 0.428 0.175 0.622 0.525 0.622 0.088 0.003 0.176-0.013 0.258-0.047s0.155-0.084 0.216-0.149 0.107-0.141 0.136-0.224c0.029-0.084 0.040-0.172 0.032-0.26v-2.256h1.030v3.635l0.020-0zM25.972 16.414h1.031v0.68c0.082-0.224 0.234-0.415 0.434-0.544s0.436-0.191 0.674-0.175v1.011c-0.7 0-1.108 0.213-1.108 0.817v1.885h-1.030l-0-3.674zM30.191 20.145c-1.049 0-1.769-0.622-1.769-1.846v-0.078c0-1.225 0.759-1.905 1.75-1.905 0.914 0 1.672 0.506 1.672 1.73v0.447h-2.373c0.039 0.661 0.33 0.914 0.759 0.914 0.15 0.012 0.298-0.028 0.422-0.113s0.215-0.21 0.258-0.353h0.953c-0.155 0.678-0.719 1.203-1.672 1.203h0.001zM29.452 17.812h1.38c-0.019-0.544-0.272-0.777-0.68-0.777-0.311 0.021-0.604 0.195-0.7 0.777z"></path>
</symbol>
<symbol id="icon-engineer" viewBox="0 0 32 32">
<path d="M16.516 3.2v-3.2h-2.060v3.2c-1.253 0.256-2.367 0.968-3.125 1.998s-1.107 2.305-0.978 3.578c0.129 1.273 0.725 2.452 1.674 3.31s2.182 1.333 3.461 1.333c1.279 0 2.513-0.475 3.461-1.333s1.545-2.037 1.674-3.31c0.129-1.273-0.22-2.548-0.978-3.578s-1.872-1.742-3.125-1.998h-0.004z"></path>
<path d="M26.4 22.709h2.508v-2.064h-3.547l-4.063-8.116c-0.85 1.155-2.023 2.032-3.372 2.52l2.8 5.6h-4.211v-2.069h-2.064v2.064h-4.209l2.8-5.6c-1.349-0.488-2.522-1.365-3.372-2.52l-4.071 8.121h-3.536v2.064h2.508l-4.572 9.132c1.171 0.293 2.407 0.177 3.504-0.327s1.989-1.368 2.528-2.448l3.179-6.356h5.241v2.064h2.064v-2.065h5.241l3.176 6.357c0.54 1.080 1.432 1.943 2.528 2.448s2.333 0.62 3.504 0.327l-4.565-9.132z"></path>
</symbol>
<symbol id="icon-product-circuit" viewBox="0 0 32 32">
<path d="M10.88 9.725v-2.266c0.854-0.302 1.574-0.896 2.032-1.677s0.626-1.7 0.473-2.592-0.617-1.703-1.31-2.287c-0.693-0.584-1.569-0.904-2.475-0.904s-1.783 0.32-2.475 0.904c-0.693 0.584-1.156 1.394-1.31 2.287s0.014 1.811 0.473 2.592c0.458 0.781 1.178 1.375 2.032 1.677v2.796c0 0.339 0.135 0.665 0.375 0.905l3.465 3.465v14.83c0 0.339 0.135 0.665 0.375 0.905s0.566 0.375 0.905 0.375c0.339 0 0.665-0.135 0.905-0.375s0.375-0.566 0.375-0.905v-15.36c-0-0.339-0.135-0.665-0.375-0.905l-3.465-3.465z"></path>
<path d="M5.76 21.245v-2.266c0.854-0.302 1.574-0.896 2.032-1.677s0.626-1.699 0.473-2.592c-0.153-0.893-0.617-1.703-1.31-2.287s-1.569-0.904-2.475-0.904-1.783 0.32-2.475 0.904c-0.693 0.584-1.156 1.394-1.31 2.287s0.014 1.811 0.473 2.592c0.458 0.781 1.178 1.375 2.032 1.677v2.796c0 0.339 0.135 0.665 0.375 0.905l3.465 3.465v3.31c0 0.339 0.135 0.665 0.375 0.905s0.566 0.375 0.905 0.375c0.339 0 0.665-0.135 0.905-0.375s0.375-0.566 0.375-0.905v-3.84c-0-0.339-0.135-0.665-0.375-0.905l-3.465-3.465z"></path>
<path d="M23.68 10.255v-2.796c0.854-0.302 1.574-0.896 2.032-1.677s0.626-1.7 0.473-2.592-0.617-1.703-1.31-2.287c-0.693-0.584-1.569-0.904-2.475-0.904s-1.783 0.32-2.475 0.904c-0.692 0.584-1.156 1.394-1.31 2.287s0.014 1.811 0.473 2.592c0.458 0.781 1.178 1.375 2.032 1.677v2.266l-3.465 3.465c-0.24 0.24-0.375 0.566-0.375 0.905v15.36c0 0.339 0.135 0.665 0.375 0.905s0.566 0.375 0.905 0.375c0.339 0 0.665-0.135 0.905-0.375s0.375-0.566 0.375-0.905v-14.83l3.465-3.465c0.24-0.24 0.375-0.566 0.375-0.905z"></path>
<path d="M31.36 15.375c0.003-0.705-0.188-1.397-0.552-2s-0.887-1.095-1.512-1.421-1.327-0.474-2.030-0.427c-0.703 0.047-1.38 0.286-1.956 0.692s-1.030 0.962-1.311 1.608-0.379 1.357-0.283 2.055c0.096 0.698 0.382 1.356 0.828 1.903s1.032 0.959 1.697 1.194v2.266l-3.465 3.465c-0.24 0.24-0.375 0.566-0.375 0.905v3.84c0 0.339 0.135 0.665 0.375 0.905s0.566 0.375 0.905 0.375c0.339 0 0.665-0.135 0.905-0.375s0.375-0.566 0.375-0.905v-3.31l3.465-3.465c0.24-0.24 0.375-0.566 0.375-0.905v-2.796c0.746-0.264 1.392-0.752 1.851-1.397s0.706-1.416 0.709-2.208z"></path>
</symbol>
<symbol id="icon-data-why" viewBox="0 0 32 32">
<path d="M16.966 0h-1.933v14.494h-2.901v1.943h2.901v14.494h1.933v-5.792h2.901v-1.933h-2.901v-15.471h2.901v-1.933h-2.901v-5.801z"></path>
<path d="M29.176 2.295h-5.647c-1.040 0-1.882 0.843-1.882 1.882v5.647c0 1.040 0.843 1.882 1.882 1.882h5.647c1.040 0 1.882-0.843 1.882-1.882v-5.647c0-1.040-0.843-1.882-1.882-1.882z"></path>
<path d="M29.176 19.236h-5.647c-1.040 0-1.882 0.843-1.882 1.882v5.647c0 1.040 0.843 1.882 1.882 1.882h5.647c1.040 0 1.882-0.843 1.882-1.882v-5.647c0-1.040-0.843-1.882-1.882-1.882z"></path>
<path d="M8.471 9.824h-5.647c-1.040 0-1.882 0.843-1.882 1.882v7.529c0 1.040 0.843 1.882 1.882 1.882h5.647c1.040 0 1.882-0.843 1.882-1.882v-7.529c0-1.040-0.843-1.882-1.882-1.882z"></path>
</symbol>
<symbol id="icon-algorithms-why" viewBox="0 0 32 32">
<path d="M7.973 15.89v-12.386h16.092v12.386l5.168-2.871-3.378-1.982v-8.432c0-0.236-0.094-0.462-0.26-0.629s-0.393-0.26-0.629-0.26h-17.888c-0.236 0-0.462 0.094-0.629 0.26s-0.26 0.393-0.26 0.629v8.428l-3.413 1.972 5.196 2.885z"></path>
<path d="M16.453 22.164c-0.133 0.074-0.282 0.113-0.434 0.113s-0.301-0.039-0.434-0.113l-13.87-7.705v14.969c0 0.236 0.094 0.462 0.26 0.628s0.393 0.26 0.629 0.26h26.825c0.236 0 0.462-0.094 0.628-0.26s0.26-0.393 0.26-0.628v-14.969l-13.865 7.705z"></path>
<path d="M13.337 14.601l-3.314-3.314c-0.084-0.083-0.15-0.181-0.195-0.29s-0.069-0.225-0.069-0.342c0-0.118 0.023-0.234 0.069-0.342s0.112-0.207 0.195-0.29l3.314-3.314 1.264 1.264-2.681 2.683 2.683 2.683-1.266 1.262z"></path>
<path d="M18.706 14.601l-1.264-1.264 2.683-2.683-2.688-2.676 1.264-1.264 3.314 3.308c0.084 0.083 0.15 0.181 0.195 0.29s0.069 0.225 0.069 0.342-0.023 0.234-0.069 0.342c-0.045 0.108-0.112 0.207-0.195 0.29l-3.308 3.314z"></path>
</symbol>
<symbol id="icon-insights-why" viewBox="0 0 32 32">
<path d="M18.735 16.911h-5.47c-0.12 0-0.238 0.024-0.349 0.069s-0.211 0.113-0.296 0.198c-0.085 0.085-0.152 0.185-0.198 0.296s-0.069 0.229-0.069 0.349v11.85c0 0.12 0.024 0.238 0.069 0.349s0.113 0.211 0.198 0.296c0.085 0.085 0.185 0.152 0.296 0.197s0.229 0.069 0.349 0.069h5.47c0.242 0 0.473-0.096 0.644-0.267s0.267-0.403 0.267-0.644v-11.85c0-0.242-0.096-0.473-0.267-0.644s-0.403-0.267-0.644-0.267z"></path>
<path d="M7.796 22.381h-5.47c-0.242 0-0.473 0.096-0.644 0.267s-0.267 0.403-0.267 0.644v6.381c0 0.242 0.096 0.473 0.267 0.644s0.403 0.267 0.644 0.267h5.47c0.242 0 0.473-0.096 0.644-0.267s0.267-0.403 0.267-0.644v-6.381c0-0.242-0.096-0.473-0.267-0.644s-0.403-0.267-0.644-0.267z"></path>
<path d="M29.674 11.443h-5.47c-0.12 0-0.238 0.024-0.349 0.069s-0.211 0.113-0.296 0.197-0.152 0.185-0.198 0.296c-0.046 0.111-0.069 0.229-0.069 0.349v17.32c0 0.12 0.023 0.238 0.069 0.349s0.113 0.211 0.198 0.296c0.085 0.085 0.185 0.152 0.296 0.197s0.229 0.069 0.349 0.069h5.47c0.242 0 0.473-0.096 0.644-0.267s0.267-0.403 0.267-0.644v-17.32c0-0.242-0.096-0.473-0.267-0.644s-0.403-0.267-0.644-0.267z"></path>
<path d="M16 12.362c0.12 0 0.239-0.024 0.349-0.069s0.211-0.113 0.296-0.198l7.561-7.567v4.18h1.824v-6.381c0-0.12-0.024-0.239-0.070-0.349s-0.114-0.211-0.198-0.296c-0.085-0.085-0.186-0.152-0.297-0.197s-0.23-0.069-0.35-0.068h-6.38v1.824h4.18l-6.915 6.915-3.912-3.914c-0.171-0.171-0.403-0.267-0.644-0.267s-0.473 0.096-0.644 0.267l-4.559 4.557 1.288 1.288 3.914-3.912 3.914 3.914c0.084 0.086 0.184 0.154 0.294 0.202s0.229 0.072 0.349 0.073z"></path>
</symbol>
<symbol id="icon-eye-why" viewBox="0 0 32 32">
<path d="M31.090 15.226c-1.402-2.808-3.554-5.173-6.217-6.833s-5.734-2.552-8.872-2.576c-3.138 0.024-6.209 0.916-8.872 2.576s-4.815 4.025-6.218 6.833c-0.121 0.24-0.184 0.505-0.184 0.774s0.063 0.534 0.184 0.774c1.402 2.808 3.554 5.173 6.217 6.833s5.734 2.552 8.872 2.576c3.138-0.024 6.209-0.916 8.872-2.576s4.815-4.025 6.218-6.833c0.121-0.24 0.184-0.505 0.184-0.774s-0.063-0.534-0.184-0.774zM16 23.641c-1.511 0-2.987-0.448-4.243-1.287s-2.235-2.032-2.813-3.427-0.729-2.931-0.435-4.413c0.295-1.482 1.022-2.842 2.090-3.91s2.429-1.796 3.91-2.090c1.481-0.295 3.017-0.143 4.413 0.435s2.588 1.557 3.428 2.813 1.287 2.733 1.287 4.243c-0.001 2.025-0.806 3.967-2.238 5.398s-3.374 2.236-5.399 2.236v0.004zM16 10.912c-0.455 0.006-0.906 0.074-1.343 0.201 0.361 0.489 0.534 1.091 0.489 1.696s-0.307 1.175-0.736 1.605c-0.43 0.43-0.999 0.691-1.605 0.736s-1.208-0.128-1.696-0.489c-0.278 1.025-0.228 2.112 0.143 3.108s1.046 1.849 1.928 2.441 1.928 0.892 2.99 0.859c1.062-0.033 2.087-0.399 2.93-1.045s1.463-1.541 1.771-2.558c0.308-1.017 0.29-2.105-0.052-3.111s-0.991-1.879-1.856-2.497c-0.865-0.618-1.901-0.949-2.964-0.946v-0.001z"></path>
</symbol>
<symbol id="icon-stars-hero" viewBox="0 0 32 32">
<path d="M26 12c-0.398 0-0.779-0.158-1.061-0.439s-0.439-0.663-0.439-1.061c0-0.796-0.316-1.559-0.879-2.121s-1.326-0.879-2.121-0.879c-0.398 0-0.779-0.158-1.061-0.439s-0.439-0.663-0.439-1.061 0.158-0.779 0.439-1.061c0.281-0.281 0.663-0.439 1.061-0.439 0.796 0 1.559-0.316 2.121-0.879s0.879-1.326 0.879-2.121c0-0.398 0.158-0.779 0.439-1.061s0.663-0.439 1.061-0.439 0.779 0.158 1.061 0.439c0.281 0.281 0.439 0.663 0.439 1.061 0 0.796 0.316 1.559 0.879 2.121s1.326 0.879 2.121 0.879c0.398 0 0.779 0.158 1.061 0.439s0.439 0.663 0.439 1.061-0.158 0.779-0.439 1.061c-0.281 0.281-0.663 0.439-1.061 0.439-0.796 0-1.559 0.316-2.121 0.879s-0.879 1.326-0.879 2.121c0 0.398-0.158 0.779-0.439 1.061s-0.663 0.439-1.061 0.439z"></path>
<path d="M12 32c-0.53 0-1.039-0.211-1.414-0.586s-0.586-0.884-0.586-1.414c0-2.122-0.843-4.157-2.343-5.657s-3.535-2.343-5.657-2.343c-0.53 0-1.039-0.211-1.414-0.586s-0.586-0.884-0.586-1.414c0-0.53 0.211-1.039 0.586-1.414s0.884-0.586 1.414-0.586c2.122 0 4.157-0.843 5.657-2.343s2.343-3.535 2.343-5.657c0-0.53 0.211-1.039 0.586-1.414s0.884-0.586 1.414-0.586c0.53 0 1.039 0.211 1.414 0.586s0.586 0.884 0.586 1.414c0 2.122 0.843 4.157 2.343 5.657s3.535 2.343 5.657 2.343c0.53 0 1.039 0.211 1.414 0.586s0.586 0.884 0.586 1.414c0 0.53-0.211 1.039-0.586 1.414s-0.884 0.586-1.414 0.586c-2.122 0-4.157 0.843-5.657 2.343s-2.343 3.535-2.343 5.657c0 0.53-0.211 1.039-0.586 1.414s-0.884 0.586-1.414 0.586z"></path>
</symbol>
</defs>
</svg>
